<svg width="526" height="155" viewBox="0 0 526 155" fill="none" xmlns="http://www.w3.org/2000/svg">

<path d="M151.272 78.3378C142.06 65.4076 130.514 55.7373 116.636 49.327C120.333 55.025 122.181 61.1888 122.181 67.8183C122.181 77.9543 118.196 86.6247 110.227 93.8295C102.257 101.034 92.6661 104.637 81.4541 104.637C70.242 104.637 60.6511 101.034 52.6815 93.8295C44.7119 86.6247 40.727 77.9543 40.727 67.8183C40.727 61.1888 42.5755 55.025 46.2724 49.327C32.3937 55.7373 20.8484 65.4076 11.6363 78.3378C19.6969 89.5696 29.8028 98.5139 41.9543 105.171C54.1057 111.828 67.2723 115.156 81.4541 115.156C95.6358 115.156 108.802 111.828 120.954 105.171C133.105 98.5139 143.211 89.5696 151.272 78.3378ZM85.8177 46.7793C85.8177 45.6835 85.3934 44.7521 84.5449 43.985C83.6965 43.218 82.6662 42.8345 81.4541 42.8345C73.8783 42.8345 67.3784 45.2863 61.9542 50.1899C56.53 55.0935 53.8179 60.9697 53.8179 67.8183C53.8179 68.9141 54.2421 69.8455 55.0906 70.6126C55.9391 71.3796 56.9694 71.7631 58.1815 71.7631C59.3936 71.7631 60.4239 71.3796 61.2724 70.6126C62.1208 69.8455 62.5451 68.9141 62.5451 67.8183C62.5451 63.1064 64.3936 59.0794 68.0905 55.7373C71.7874 52.3952 76.242 50.7241 81.4541 50.7241C82.6662 50.7241 83.6965 50.3406 84.5449 49.5735C85.3934 48.8065 85.8177 47.8751 85.8177 46.7793ZM162.908 78.3378C162.908 80.2007 162.302 82.0909 161.09 84.0085C152.605 96.61 141.196 106.705 126.863 114.293C112.53 121.882 97.3934 125.676 81.4541 125.676C65.5148 125.676 50.3785 121.868 36.0452 114.252C21.712 106.636 10.303 96.5552 1.81817 84.0085C0.606057 82.0909 0 80.2007 0 78.3378C0 76.475 0.606057 74.5848 1.81817 72.6672C10.303 60.1204 21.712 50.0392 36.0452 42.4235C50.3785 34.8078 65.5148 31 81.4541 31C97.3934 31 112.53 34.8078 126.863 42.4235C141.196 50.0392 152.605 60.1204 161.09 72.6672C162.302 74.5848 162.908 76.475 162.908 78.3378Z" fill="#009688"/>
</svg>
