<svg width="526" height="155" viewBox="0 0 526 155" fill="none" xmlns="http://www.w3.org/2000/svg">
<path d="M186.273 124V30.9091H217.727C225.03 30.9091 231 32.2273 235.636 34.8636C240.303 37.4697 243.758 41 246 45.4545C248.242 49.9091 249.364 54.8788 249.364 60.3636C249.364 65.8485 248.242 70.8333 246 75.3182C243.788 79.803 240.364 83.3788 235.727 86.0455C231.091 88.6818 225.152 90 217.909 90H195.364V80H217.545C222.545 80 226.561 79.1364 229.591 77.4091C232.621 75.6818 234.818 73.3485 236.182 70.4091C237.576 67.4394 238.273 64.0909 238.273 60.3636C238.273 56.6364 237.576 53.303 236.182 50.3636C234.818 47.4242 232.606 45.1212 229.545 43.4545C226.485 41.7576 222.424 40.9091 217.364 40.9091H197.545V124H186.273ZM266.068 124V54.1818H276.795V124H266.068ZM271.523 42.5455C269.432 42.5455 267.629 41.8333 266.114 40.4091C264.629 38.9848 263.886 37.2727 263.886 35.2727C263.886 33.2727 264.629 31.5606 266.114 30.1364C267.629 28.7121 269.432 28 271.523 28C273.614 28 275.402 28.7121 276.886 30.1364C278.402 31.5606 279.159 33.2727 279.159 35.2727C279.159 37.2727 278.402 38.9848 276.886 40.4091C275.402 41.8333 273.614 42.5455 271.523 42.5455ZM324.807 125.455C318.261 125.455 312.625 123.909 307.898 120.818C303.17 117.727 299.534 113.47 296.989 108.045C294.443 102.621 293.17 96.4242 293.17 89.4545C293.17 82.3636 294.473 76.1061 297.08 70.6818C299.716 65.2273 303.383 60.9697 308.08 57.9091C312.807 54.8182 318.322 53.2727 324.625 53.2727C329.534 53.2727 333.958 54.1818 337.898 56C341.837 57.8182 345.064 60.3636 347.58 63.6364C350.095 66.9091 351.655 70.7273 352.261 75.0909H341.534C340.716 71.9091 338.898 69.0909 336.08 66.6364C333.292 64.1515 329.534 62.9091 324.807 62.9091C320.625 62.9091 316.958 64 313.807 66.1818C310.686 68.3333 308.246 71.3788 306.489 75.3182C304.761 79.2273 303.898 83.8182 303.898 89.0909C303.898 94.4848 304.746 99.1818 306.443 103.182C308.17 107.182 310.595 110.288 313.716 112.5C316.867 114.712 320.564 115.818 324.807 115.818C327.595 115.818 330.125 115.333 332.398 114.364C334.67 113.394 336.595 112 338.17 110.182C339.746 108.364 340.867 106.182 341.534 103.636H352.261C351.655 107.758 350.155 111.47 347.761 114.773C345.398 118.045 342.261 120.652 338.352 122.591C334.473 124.5 329.958 125.455 324.807 125.455ZM377.943 98.5455L377.761 85.2727H379.943L410.489 54.1818H423.761L391.216 87.0909H390.307L377.943 98.5455ZM367.943 124V30.9091H378.67V124H367.943ZM412.307 124L385.034 89.4545L392.67 82L425.943 124H412.307ZM468.014 30.9091V124H456.741V30.9091H468.014ZM519.526 54.1818V63.2727H483.344V54.1818H519.526ZM493.889 37.4545H504.616V104C504.616 107.03 505.056 109.303 505.935 110.818C506.844 112.303 507.995 113.303 509.389 113.818C510.813 114.303 512.313 114.545 513.889 114.545C515.071 114.545 516.041 114.485 516.798 114.364C517.556 114.212 518.162 114.091 518.616 114L520.798 123.636C520.071 123.909 519.056 124.182 517.753 124.455C516.45 124.758 514.798 124.909 512.798 124.909C509.768 124.909 506.798 124.258 503.889 122.955C501.01 121.652 498.616 119.667 496.707 117C494.829 114.333 493.889 110.97 493.889 106.909V37.4545Z" fill="#009688"/>
<path d="M151.272 78.3378C142.06 65.4076 130.514 55.7373 116.636 49.327C120.333 55.025 122.181 61.1888 122.181 67.8183C122.181 77.9543 118.196 86.6247 110.227 93.8295C102.257 101.034 92.6661 104.637 81.4541 104.637C70.242 104.637 60.6511 101.034 52.6815 93.8295C44.7119 86.6247 40.727 77.9543 40.727 67.8183C40.727 61.1888 42.5755 55.025 46.2724 49.327C32.3937 55.7373 20.8484 65.4076 11.6363 78.3378C19.6969 89.5696 29.8028 98.5139 41.9543 105.171C54.1057 111.828 67.2723 115.156 81.4541 115.156C95.6358 115.156 108.802 111.828 120.954 105.171C133.105 98.5139 143.211 89.5696 151.272 78.3378ZM85.8177 46.7793C85.8177 45.6835 85.3934 44.7521 84.5449 43.985C83.6965 43.218 82.6662 42.8345 81.4541 42.8345C73.8783 42.8345 67.3784 45.2863 61.9542 50.1899C56.53 55.0935 53.8179 60.9697 53.8179 67.8183C53.8179 68.9141 54.2421 69.8455 55.0906 70.6126C55.9391 71.3796 56.9694 71.7631 58.1815 71.7631C59.3936 71.7631 60.4239 71.3796 61.2724 70.6126C62.1208 69.8455 62.5451 68.9141 62.5451 67.8183C62.5451 63.1064 64.3936 59.0794 68.0905 55.7373C71.7874 52.3952 76.242 50.7241 81.4541 50.7241C82.6662 50.7241 83.6965 50.3406 84.5449 49.5735C85.3934 48.8065 85.8177 47.8751 85.8177 46.7793ZM162.908 78.3378C162.908 80.2007 162.302 82.0909 161.09 84.0085C152.605 96.61 141.196 106.705 126.863 114.293C112.53 121.882 97.3934 125.676 81.4541 125.676C65.5148 125.676 50.3785 121.868 36.0452 114.252C21.712 106.636 10.303 96.5552 1.81817 84.0085C0.606057 82.0909 0 80.2007 0 78.3378C0 76.475 0.606057 74.5848 1.81817 72.6672C10.303 60.1204 21.712 50.0392 36.0452 42.4235C50.3785 34.8078 65.5148 31 81.4541 31C97.3934 31 112.53 34.8078 126.863 42.4235C141.196 50.0392 152.605 60.1204 161.09 72.6672C162.302 74.5848 162.908 76.475 162.908 78.3378Z" fill="#009688"/>
</svg>
